<svg xmlns="http://www.w3.org/2000/svg" width="30.602" height="30.602" viewBox="0 0 30.602 30.602">
  <path id="user_1_" data-name="user (1)" d="M30.6,15.3A15.3,15.3,0,1,0,4.966,26.572l-.014.013.5.418c.032.027.067.05.1.076.264.219.537.426.815.627.09.065.18.13.272.194q.446.307.914.583l.2.118c.341.194.689.377,1.046.545l.079.036a15.163,15.163,0,0,0,3.7,1.171l.1.018c.4.07.81.125,1.222.162l.151.012c.411.034.826.056,1.246.056s.828-.022,1.236-.055l.155-.012q.613-.056,1.212-.16l.1-.019a15.162,15.162,0,0,0,3.648-1.143l.127-.058q.515-.242,1.008-.521.123-.069.244-.141c.3-.176.594-.361.88-.556.1-.07.2-.144.305-.218.244-.176.484-.357.717-.547.052-.042.107-.078.158-.121l.509-.425-.015-.013A15.261,15.261,0,0,0,30.6,15.3Zm-29.489,0a14.188,14.188,0,1,1,23.6,10.607,4.17,4.17,0,0,0-.5-.3L19.5,23.253a1.233,1.233,0,0,1-.685-1.109V20.5c.109-.135.224-.287.343-.455a11.338,11.338,0,0,0,1.456-2.85,2.019,2.019,0,0,0,1.16-1.83V13.392a2.024,2.024,0,0,0-.494-1.318v-2.6a4.487,4.487,0,0,0-1.048-3.263C19.209,5.044,17.549,4.451,15.3,4.451s-3.908.593-4.934,1.763A4.488,4.488,0,0,0,9.32,9.477v2.6a2.027,2.027,0,0,0-.494,1.318v1.972a2.024,2.024,0,0,0,.746,1.57,10.455,10.455,0,0,0,1.721,3.555V22.1a1.241,1.241,0,0,1-.647,1.089l-4.4,2.4a4.021,4.021,0,0,0-.418.265A14.154,14.154,0,0,1,1.113,15.3Z" fill="#32689a"/>
</svg>
