<svg xmlns="http://www.w3.org/2000/svg" width="21.328" height="28" viewBox="0 0 21.328 28">
  <g id="doctor" transform="translate(-61)" opacity="0.997">
    <g id="Component_1_1" data-name="Component 1 – 1" transform="translate(61)">
      <path id="Path_295" data-name="Path 295" d="M151,282h1.666v1.666H151Z" transform="translate(-146.085 -266.593)" fill="#fff"/>
      <path id="Path_296" data-name="Path 296" d="M151,162h1.666v1.666H151Z" transform="translate(-146.085 -153.149)" fill="#fff"/>
      <path id="Path_298" data-name="Path 298" d="M181.833,4H188.5a.833.833,0,0,0,.833-.833V.833A.833.833,0,0,0,188.5,0h-6.666A.833.833,0,0,0,181,.833V3.166A.833.833,0,0,0,181.833,4Z" transform="translate(-174.502)" fill="#fff"/>
      <path id="Path_297" data-name="Path 297" d="M81.508,32h-4.1v1.366a2.462,2.462,0,0,1-2.461,2.458H68.383a2.462,2.462,0,0,1-2.461-2.458V32h-4.1a.82.82,0,0,0-.82.819V57.4a.82.82,0,0,0,.82.819H81.508a.82.82,0,0,0,.82-.819V32.819A.82.82,0,0,0,81.508,32ZM64.281,38.282a.82.82,0,0,1,.82-.819h3.281a.82.82,0,0,1,.82.819V41.56a.82.82,0,0,1-.82.819H65.1a.82.82,0,0,1-.82-.819Zm0,6.556a.82.82,0,0,1,.82-.819h3.281a.82.82,0,0,1,.82.819v3.278a.82.82,0,0,1-.82.819H65.1a.82.82,0,0,1-.82-.819Zm9.57,10.653H65.1a.819.819,0,1,1,0-1.639h8.75a.819.819,0,1,1,0,1.639Zm4.375-3.278H65.1a.819.819,0,1,1,0-1.639H78.227a.819.819,0,1,1,0,1.639Zm0-3.278H71.664a.819.819,0,1,1,0-1.639h6.563a.819.819,0,1,1,0,1.639Zm0-3.278H71.664a.819.819,0,1,1,0-1.639h6.563a.819.819,0,1,1,0,1.639Zm0-3.278H71.664a.819.819,0,1,1,0-1.639h6.563a.819.819,0,1,1,0,1.639Zm0-3.278H71.664a.819.819,0,1,1,0-1.639h6.563a.819.819,0,1,1,0,1.639Z" transform="translate(-61 -30.223)" fill="#fff"/>
    </g>
  </g>
</svg>
