<svg xmlns="http://www.w3.org/2000/svg" width="29.459" height="28" viewBox="0 0 29.459 28">
  <g id="Home" transform="translate(-2 -14.676)">
    <g id="Group_282" data-name="Group 282" transform="translate(2 14.675)">
      <g id="Group_281" data-name="Group 281">
        <path id="Path_292" data-name="Path 292" d="M28.964,25.115,15.747,13.072a1.5,1.5,0,0,0-2.035,0L.495,25.115a1.511,1.511,0,0,0,1.018,2.627H3.623V39.809a.866.866,0,0,0,.866.866h7.245a.866.866,0,0,0,.866-.866V32.483h4.258v7.326a.866.866,0,0,0,.866.866h7.244a.866.866,0,0,0,.866-.866V27.743h2.111a1.51,1.51,0,0,0,1.017-2.627Z" transform="translate(0 -12.675)" fill="#32689a"/>
      </g>
    </g>
  </g>
</svg>
