<svg xmlns="http://www.w3.org/2000/svg" width="23.333" height="28" viewBox="0 0 23.333 28">
  <path id="Reports" d="M22.125,0H5.208A3.211,3.211,0,0,0,2,3.208V24.792A3.211,3.211,0,0,0,5.208,28H22.125a3.211,3.211,0,0,0,3.208-3.208V3.208A3.211,3.211,0,0,0,22.125,0ZM11.208,13.167V7.422a5.82,5.82,0,1,1-4.32,10.427l4.064-4.064a.871.871,0,0,0,.257-.618ZM9.458,7.422v5.383L5.652,16.612a5.785,5.785,0,0,1,3.807-9.19Zm11.5,17.37H6.375a.875.875,0,1,1,0-1.75H20.958a.875.875,0,1,1,0,1.75Zm0-3.792h-1.75a.875.875,0,0,1,0-1.75h1.75a.875.875,0,1,1,0,1.75Zm0-5.208h-1.75a.875.875,0,0,1,0-1.75h1.75a.875.875,0,0,1,0,1.75Zm0-4.5h-1.75a.875.875,0,0,1,0-1.75h1.75a.875.875,0,1,1,0,1.75Zm0-4.208h-1.75a.875.875,0,1,1,0-1.75h1.75a.875.875,0,1,1,0,1.75Z" transform="translate(-2)" fill="#fff"/>
</svg>
