<svg id="request" xmlns="http://www.w3.org/2000/svg" width="28.004" height="28.004" viewBox="0 0 28.004 28.004">
  <g id="Component_2_1" data-name="Component 2 – 1">
    <path id="Path_299" data-name="Path 299" d="M206.8,0H196.257A3.455,3.455,0,0,0,192.8,3.457V19.274a.821.821,0,0,0,1.313.656l3.3-2.472H206.8A3.455,3.455,0,0,0,210.259,14V3.457A3.455,3.455,0,0,0,206.8,0ZM201.53,13.5a.82.82,0,1,1,.82-.82A.821.821,0,0,1,201.53,13.5Zm.82-3.628v.172a.82.82,0,1,1-1.641,0V9.169a.821.821,0,0,1,.82-.82,1.376,1.376,0,1,0-1.376-1.377.82.82,0,1,1-1.641,0h0a3.017,3.017,0,1,1,3.838,2.905Zm0,0" transform="translate(-182.255)" fill="#fff"/>
    <path id="Path_300" data-name="Path 300" d="M32.182,244.867a3.878,3.878,0,1,1-3.878-3.878A3.878,3.878,0,0,1,32.182,244.867Zm0,0" transform="translate(-23.09 -227.807)" fill="#fff"/>
    <path id="Path_301" data-name="Path 301" d="M5.214,382.8A5.214,5.214,0,0,0,0,388.019v1.032a.82.82,0,0,0,.82.82H9.608a.82.82,0,0,0,.82-.82v-1.032A5.214,5.214,0,0,0,5.214,382.8Zm0,0" transform="translate(0 -361.867)" fill="#fff"/>
  </g>
</svg>
